<svg width="178" height="103" viewBox="0 0 178 103" fill="none" xmlns="http://www.w3.org/2000/svg">
<g clip-path="url(#clip0_123_440)">
<path d="M91.6229 28.5627H63.0927V0H91.6229V28.5627Z" fill="#F1511B"/>
<path d="M123.124 28.5627H94.5938V0H123.124V28.5627Z" fill="#80CC28"/>
<path d="M91.6224 60.1097H63.0927V31.5479H91.6224V60.1097Z" fill="#00ADEF"/>
<path d="M123.124 60.1097H94.5938V31.5479H123.124V60.1097Z" fill="#FBBC09"/>
<path d="M177.985 84.1845V79.8476H172.606V73.106L172.425 73.1615L167.373 74.7094L167.274 74.7394V79.8476H159.299V77.0027C159.299 75.6779 159.595 74.6636 160.177 73.9876C160.757 73.3195 161.585 72.9801 162.642 72.9801C163.402 72.9801 164.189 73.1599 164.98 73.5126L165.178 73.6011V69.0338L165.084 68.9992C164.345 68.7328 163.341 68.5994 162.097 68.5994C160.528 68.5994 159.102 68.9412 157.859 69.6186C156.615 70.2968 155.636 71.2656 154.951 72.4961C154.267 73.7264 153.921 75.1463 153.921 76.7184V79.8468H150.176V84.1834H153.921V102.453H159.299V84.1834H167.274V95.7939C167.274 100.575 169.526 102.999 173.969 102.999C174.7 102.999 175.468 102.913 176.253 102.744C177.052 102.572 177.596 102.4 177.915 102.217L177.986 102.175V97.7983L177.766 97.9429C177.476 98.1377 177.112 98.2967 176.685 98.4147C176.257 98.535 175.899 98.5952 175.623 98.5952C174.583 98.5952 173.813 98.3152 173.335 97.761C172.852 97.2013 172.606 96.2232 172.606 94.8564V84.1829H177.985L177.985 84.1845ZM138.167 98.5977C136.215 98.5977 134.677 97.9495 133.593 96.6731C132.501 95.3911 131.949 93.5621 131.949 91.2391C131.949 88.842 132.501 86.9662 133.594 85.661C134.678 84.3635 136.202 83.706 138.123 83.706C139.988 83.706 141.472 84.3349 142.535 85.5747C143.604 86.8216 144.146 88.6835 144.146 91.1081C144.146 93.5627 143.636 95.4486 142.631 96.7099C141.632 97.962 140.131 98.5977 138.167 98.5977ZM138.406 79.3034C134.683 79.3034 131.725 80.3956 129.617 82.5503C127.51 84.7045 126.44 87.6861 126.44 91.4126C126.44 94.9518 127.484 97.7988 129.541 99.8729C131.598 101.948 134.398 102.999 137.861 102.999C141.471 102.999 144.369 101.893 146.477 99.7079C148.584 97.5259 149.652 94.5726 149.652 90.9333C149.652 87.3394 148.65 84.4702 146.673 82.41C144.696 80.3482 141.915 79.3034 138.406 79.3034ZM117.772 79.3034C115.239 79.3034 113.144 79.9519 111.543 81.2307C109.933 82.5174 109.116 84.2044 109.116 86.2455C109.116 87.3069 109.292 88.2496 109.639 89.0496C109.988 89.8514 110.529 90.5577 111.246 91.1509C111.959 91.7387 113.058 92.3547 114.515 92.9812C115.74 93.4862 116.653 93.9127 117.233 94.2485C117.8 94.5784 118.202 94.9101 118.429 95.2326C118.65 95.5483 118.763 95.9802 118.763 96.5138C118.763 98.032 117.627 98.7709 115.289 98.7709C114.422 98.7709 113.433 98.5901 112.349 98.2327C111.273 97.8803 110.258 97.3648 109.339 96.7042L109.116 96.5446V101.726L109.198 101.765C109.959 102.117 110.918 102.413 112.049 102.646C113.177 102.879 114.203 102.999 115.093 102.999C117.842 102.999 120.055 102.346 121.67 101.06C123.295 99.7653 124.119 98.0377 124.119 95.9252C124.119 94.401 123.676 93.0945 122.801 92.0412C121.934 90.9959 120.427 90.0358 118.326 89.1874C116.652 88.5144 115.578 87.956 115.136 87.5276C114.71 87.1133 114.493 86.5274 114.493 85.7855C114.493 85.1286 114.761 84.6015 115.31 84.1747C115.863 83.7468 116.632 83.5284 117.598 83.5284C118.494 83.5284 119.41 83.6703 120.322 83.9476C121.233 84.2256 122.033 84.5974 122.701 85.0523L122.921 85.2024V80.2869L122.837 80.2499C122.219 79.9852 121.408 79.7585 120.42 79.575C119.438 79.3955 118.547 79.3034 117.772 79.3034ZM95.0993 98.5977C93.1481 98.5977 91.6088 97.9495 90.5252 96.6731C89.4337 95.3911 88.8816 93.5627 88.8816 91.2391C88.8816 88.842 89.4342 86.9662 90.526 85.661C91.6099 84.3635 93.1334 83.706 95.0558 83.706C96.92 83.706 98.404 84.3349 99.4673 85.5747C100.536 86.8216 101.078 88.6835 101.078 91.1081C101.078 93.5627 100.568 95.4486 99.5625 96.7099C98.5638 97.962 97.0628 98.5977 95.0993 98.5977ZM95.3387 79.3034C91.6148 79.3034 88.6569 80.3956 86.5501 82.5503C84.4427 84.7045 83.3729 87.6861 83.3729 91.4126C83.3729 94.9534 84.4171 97.7988 86.4734 99.8729C88.5307 101.948 91.3302 102.999 94.7935 102.999C98.4024 102.999 101.303 101.893 103.41 99.7079C105.516 97.5259 106.585 94.5726 106.585 90.9333C106.585 87.3394 105.582 84.4702 103.606 82.41C101.627 80.3482 98.8453 79.3034 95.3387 79.3034ZM75.2106 83.7629V79.8476H69.8997V102.453H75.2106V90.8902C75.2106 88.9235 75.6559 87.3089 76.5341 86.0881C77.402 84.8826 78.5577 84.2714 79.97 84.2714C80.4483 84.2714 80.9851 84.3507 81.5667 84.5067C82.1424 84.662 82.5589 84.8303 82.8049 85.0082L83.0283 85.17V79.8092L82.9426 79.7714C82.4479 79.5614 81.7479 79.4551 80.8624 79.4551C79.5279 79.4551 78.333 79.8841 77.3095 80.7301C76.412 81.4734 75.7626 82.4926 75.2658 83.7629H75.2106ZM60.3876 79.3034C57.9507 79.3034 55.7778 79.8264 53.9283 80.8578C52.0759 81.8909 50.6437 83.3674 49.6687 85.2438C48.699 87.1152 48.2058 89.3012 48.2058 91.7403C48.2058 93.8767 48.6835 95.8359 49.6279 97.5641C50.5733 99.2944 51.9102 100.648 53.6024 101.587C55.2922 102.525 57.2466 103 59.4093 103C61.9332 103 64.0884 102.495 65.8166 101.498L65.8862 101.458V96.5865L65.6634 96.7499C64.8683 97.3273 63.9924 97.784 63.0641 98.1052C62.1252 98.4326 61.2696 98.599 60.5193 98.599C58.4353 98.599 56.7616 97.9465 55.5474 96.659C54.3299 95.3701 53.7131 93.5608 53.7131 91.283C53.7131 88.9913 54.3565 87.1356 55.6254 85.7659C56.8894 84.3994 58.5664 83.7068 60.6074 83.7068C62.353 83.7068 64.0544 84.2986 65.6639 85.4679L65.8862 85.6297V80.4956L65.8139 80.4555C65.2082 80.1162 64.3823 79.8359 63.3569 79.6232C62.3356 79.4105 61.3365 79.3034 60.3876 79.3034ZM44.5471 79.8476H39.2357V102.453H44.5471V79.8476ZM41.9454 70.2186C41.0713 70.2186 40.3092 70.5163 39.6832 71.1068C39.0539 71.6995 38.7348 72.4447 38.7348 73.3241C38.7348 74.19 39.0504 74.9221 39.6731 75.4976C40.2918 76.072 41.0568 76.3638 41.9459 76.3638C42.8358 76.3638 43.6036 76.0731 44.2296 75.4987C44.86 74.9221 45.1797 74.1892 45.1797 73.3241C45.1797 72.4754 44.869 71.7381 44.2557 71.1308C43.6425 70.525 42.8655 70.2186 41.9454 70.2186ZM28.6936 78.1805V102.453H34.1144V70.9107H26.612L17.0763 94.34L7.82186 70.9107H0.0139771V102.453H5.10832V78.1777H5.28326L15.0554 102.453H18.8994L28.5189 78.1807L28.6936 78.1805Z" fill="#706D6E"/>
</g>
<defs>
<clipPath id="clip0_123_440">
<rect width="178" height="103" fill="white"/>
</clipPath>
</defs>
</svg>
