<svg width="144" height="113" viewBox="0 0 144 113" fill="none" xmlns="http://www.w3.org/2000/svg">
<g clip-path="url(#clip0_123_546)">
<path d="M-0.130646 68.571H8.49954L23.173 95.1188L37.8489 68.571H46.2918V112.193H39.2517V78.7607L26.382 101.912H19.7767L6.90946 78.7607V112.193H-0.130646V68.571ZM68.3512 84.8355C63.3023 84.8355 60.2615 88.6356 59.5337 93.3413H76.6692C76.3161 88.4939 73.5202 84.8355 68.3512 84.8355ZM52.5536 96.022C52.5536 86.1206 58.9524 78.9144 68.4737 78.9144C77.8389 78.9144 83.4306 86.0294 83.4306 96.5505V98.4841H59.5337C60.3816 103.603 63.7779 107.052 69.2544 107.052C73.6235 107.052 76.3545 105.719 78.9438 103.281L82.6836 107.862C79.16 111.102 74.678 112.971 69.0046 112.971C58.6978 112.971 52.5536 105.455 52.5536 96.022ZM91.9672 85.4601H85.4867V79.6951H91.9672V70.1612H98.7599V79.6951H108.605V85.4601H98.7599V100.072C98.7599 105.061 100.355 106.834 104.275 106.834C106.064 106.834 107.09 106.68 108.605 106.428V112.13C106.718 112.664 104.916 112.909 102.966 112.909C95.6325 112.909 91.9672 108.902 91.9672 100.881V85.4601ZM137.208 91.0665C135.843 87.6219 132.8 85.0853 128.328 85.0853C122.515 85.0853 118.794 89.2097 118.794 95.9283C118.794 102.479 122.22 106.803 128.049 106.803C132.632 106.803 135.904 104.136 137.208 100.819V91.0665ZM144.001 112.193H137.333V107.643C135.469 110.322 132.077 112.971 126.584 112.971C117.75 112.971 111.846 105.575 111.846 95.9283C111.846 86.1903 117.891 78.9144 126.959 78.9144C131.441 78.9144 134.957 80.7063 137.333 83.8699V79.6951H144.001V112.193Z" fill="#192830"/>
<path d="M38.7838 36.42C38.7838 39.5947 39.4792 42.0321 40.388 43.5068C41.5796 45.4382 43.3568 46.2565 45.1687 46.2565C47.5057 46.2565 49.6436 45.6753 53.7637 39.9648C57.0643 35.3877 60.9535 28.9631 63.5704 24.9354L68.002 18.1117C71.0805 13.3727 74.6437 8.10457 78.7291 4.5337C82.0644 1.61918 85.6622 0 89.2831 0C95.3622 0 101.153 3.53039 105.584 10.1517C110.434 17.4033 112.789 26.5372 112.789 35.9631C112.789 41.5666 111.686 45.684 109.811 48.9368C107.999 52.0826 104.468 55.2256 98.5272 55.2256V46.2565C103.614 46.2565 104.883 41.5724 104.883 36.2118C104.883 28.5727 103.106 20.0952 99.1908 14.0377C96.4124 9.74109 92.8117 7.11571 88.8503 7.11571C84.5658 7.11571 81.118 10.3541 77.2433 16.1282C75.1832 19.1959 73.0684 22.9345 70.6939 27.153L68.0799 31.7937C62.8289 41.1242 61.4988 43.2494 58.8733 46.7567C54.2715 52.898 50.3419 55.2256 45.1687 55.2256C39.032 55.2256 35.1514 52.5626 32.748 48.5493C30.7861 45.2792 29.8225 40.9884 29.8225 36.099L38.7838 36.42Z" fill="#0081FB"/>
<path d="M36.8887 10.7849C40.9972 4.43828 46.9262 0 53.7266 0C57.6648 0 61.58 1.16812 65.6683 4.51346C70.1403 8.17107 74.9066 14.1938 80.853 24.12L82.9851 27.6822C88.1323 36.2754 91.0608 40.6963 92.7745 42.781C94.9788 45.4584 96.5224 46.2565 98.5276 46.2565C103.614 46.2565 104.884 41.5724 104.884 36.2118L112.789 35.9631C112.789 41.5666 111.687 45.684 109.812 48.9368C108 52.0826 104.468 55.2256 98.5276 55.2256C94.8346 55.2256 91.5628 54.4218 87.9448 51.0012C85.1634 48.3759 81.9119 43.712 79.4104 39.5195L71.9695 27.0634C68.2361 20.8122 64.8114 16.1513 62.8293 14.0406C60.6972 11.7709 57.9562 9.02981 53.5823 9.02981C50.0422 9.02981 47.0358 11.5193 44.52 15.3273L36.8887 10.7849Z" fill="url(#paint0_linear_123_546)"/>
<path d="M53.5819 9.02981C50.0418 9.02981 47.0354 11.5193 44.5196 15.3273C40.9621 20.7081 38.7838 28.7231 38.7838 36.42C38.7838 39.5947 39.4792 42.0321 40.388 43.5068L32.748 48.5493C30.7861 45.2792 29.8225 40.9884 29.8225 36.099C29.8225 27.208 32.2576 17.9411 36.8883 10.7849C40.9968 4.43828 46.9258 0 53.7262 0L53.5819 9.02981Z" fill="url(#paint1_linear_123_546)"/>
</g>
<defs>
<linearGradient id="paint0_linear_123_546" x1="47.4225" y1="33.8293" x2="104.55" y2="36.7083" gradientUnits="userSpaceOnUse">
<stop stop-color="#0064E1"/>
<stop offset="0.4" stop-color="#0064E1"/>
<stop offset="0.83" stop-color="#0073EE"/>
<stop offset="1" stop-color="#0082FB"/>
</linearGradient>
<linearGradient id="paint1_linear_123_546" x1="42.8058" y1="40.1903" x2="42.8058" y2="19.0832" gradientUnits="userSpaceOnUse">
<stop stop-color="#0082FB"/>
<stop offset="1" stop-color="#0064E0"/>
</linearGradient>
<clipPath id="clip0_123_546">
<rect width="144" height="113" fill="white"/>
</clipPath>
</defs>
</svg>
