<svg width="30" height="31" viewBox="0 0 30 31" fill="none" xmlns="http://www.w3.org/2000/svg">
<g id="Instagram Icon">
<path id="Vector" d="M9.99805 3.5C6.13905 3.5 3 6.64195 3 10.502V20.502C3 24.361 6.14195 27.5 10.002 27.5H20.002C23.861 27.5 27 24.358 27 20.498V10.498C27 6.63905 23.858 3.5 19.998 3.5H9.99805ZM22 7.5C22.552 7.5 23 7.948 23 8.5C23 9.052 22.552 9.5 22 9.5C21.448 9.5 21 9.052 21 8.5C21 7.948 21.448 7.5 22 7.5ZM15 9.5C18.309 9.5 21 12.191 21 15.5C21 18.809 18.309 21.5 15 21.5C11.691 21.5 9 18.809 9 15.5C9 12.191 11.691 9.5 15 9.5ZM15 11.5C13.9391 11.5 12.9217 11.9214 12.1716 12.6716C11.4214 13.4217 11 14.4391 11 15.5C11 16.5609 11.4214 17.5783 12.1716 18.3284C12.9217 19.0786 13.9391 19.5 15 19.5C16.0609 19.5 17.0783 19.0786 17.8284 18.3284C18.5786 17.5783 19 16.5609 19 15.5C19 14.4391 18.5786 13.4217 17.8284 12.6716C17.0783 11.9214 16.0609 11.5 15 11.5Z" fill="black"/>
</g>
</svg>
