<svg width="26" height="26" viewBox="0 0 26 26" fill="none" xmlns="http://www.w3.org/2000/svg">
<g id="search_magnifier_icon_145939 1" clip-path="url(#clip0_149_9)">
<g id="Icons1">
<path id="Vector" fill-rule="evenodd" clip-rule="evenodd" d="M16.2256 17.9327C14.8497 18.9512 19.1283 14.5759 17.9108 16.239C17.9412 16.2366 17.8847 16.3288 17.6954 16.56C17.6954 16.56 20.9471 19.7897 22.5432 21.4334C23.0973 22.0326 22.0976 23.2286 21.4183 22.6042C19.9729 21.2018 16.5527 17.7166 16.5474 17.7109L16.2256 17.9327Z" fill="black"/>
<path id="Vector_2" d="M11.4477 19.5658C13.5399 19.5455 15.611 18.679 17.1003 17.2071C18.8691 15.459 19.7799 12.8728 19.4622 10.4037C18.9178 6.17257 15.4395 3.30119 11.3957 3.30119C8.32325 3.30119 5.33731 5.22316 4.02756 8.01004C3.02494 10.1437 3.02291 12.7197 4.02756 14.857C5.32797 17.6243 8.26516 19.5362 11.3433 19.5658C11.3783 19.5658 11.4132 19.5658 11.4477 19.5658ZM11.3518 18.2102C8.22738 18.1801 5.31213 15.7637 4.73241 12.6657C4.32372 10.4817 5.09519 8.1181 6.70231 6.56704C8.57837 4.75557 11.5273 4.14904 13.9795 5.17563C16.1732 6.09416 17.8153 8.22697 18.1179 10.5767C18.3771 12.5909 17.6544 14.7018 16.2342 16.1558C14.9882 17.4314 13.2409 18.1927 11.4392 18.2102C11.4099 18.2102 11.3811 18.2102 11.3518 18.2102Z" fill="black"/>
</g>
</g>
<defs>
<clipPath id="clip0_149_9">
<rect width="26" height="26" fill="white"/>
</clipPath>
</defs>
</svg>
