<svg width="133" height="163" viewBox="0 0 133 163" fill="none" xmlns="http://www.w3.org/2000/svg">
<path d="M118.423 59.708C117.625 60.3245 103.537 68.2302 103.537 85.8091C103.537 106.142 121.463 113.335 122 113.513C121.917 113.952 119.152 123.365 112.549 132.955C106.66 141.396 100.511 149.822 91.1556 149.822C81.8005 149.822 79.393 144.41 68.5933 144.41C58.0688 144.41 54.3267 150 45.7696 150C37.2124 150 31.2416 142.19 24.3766 132.599C16.4248 121.337 10 103.84 10 87.234C10 60.5986 27.3895 46.4724 44.5039 46.4724C53.5976 46.4724 61.178 52.4188 66.8874 52.4188C72.3216 52.4188 80.7962 46.1162 91.1419 46.1162C95.0628 46.1162 109.15 46.4724 118.423 59.708ZM86.2304 34.84C90.509 29.7842 93.5357 22.7691 93.5357 15.754C93.5357 14.7812 93.4531 13.7947 93.2743 13C86.313 13.2603 78.031 17.6174 73.037 23.3856C69.1161 27.8249 65.4566 34.84 65.4566 41.951C65.4566 43.0197 65.6354 44.0884 65.718 44.4309C66.1582 44.5132 66.8736 44.6091 67.589 44.6091C73.8349 44.6091 81.6905 40.4438 86.2304 34.84Z" fill="black"/>
</svg>
