<svg width="199" height="109" viewBox="0 0 199 109" fill="none" xmlns="http://www.w3.org/2000/svg">
<g clip-path="url(#clip0_123_493)">
<path d="M82.7325 72.0626V109H93.2477V72.0626H82.7325ZM0 72V108.969H10.61V80.264L18.8832 80.2953C21.5989 80.2953 23.4935 80.9526 24.7882 82.3299C26.4618 84.0829 27.1249 86.9315 27.1249 92.0964V108.969H37.4191V88.5592C37.4191 73.9721 28.0406 72 18.8832 72H0ZM99.6895 72.0626V109H116.741C125.835 109 128.804 107.497 131.993 104.148C134.267 101.8 135.719 96.6041 135.719 90.9382C135.719 85.742 134.488 81.1091 132.309 78.2293C128.456 73.0643 122.836 72.0626 114.436 72.0626H99.6895ZM110.11 80.0761H114.626C121.194 80.0761 125.425 82.9873 125.425 90.5626C125.425 98.1379 121.194 101.08 114.626 101.08H110.11V80.0761ZM67.5754 72.0626L58.7969 101.331L50.3973 72.0626H39.0295L51.0289 109H66.186L78.3116 72.0626H67.5754ZM140.645 109H151.16V72.0626H140.645V109ZM170.138 72.0626L155.455 108.969H165.812L168.149 102.426H185.517L187.727 108.937H199L184.19 72.0626H170.138ZM176.959 78.7927L183.338 96.0719H170.391L176.959 78.7927Z" fill="black"/>
<path d="M79.062 16.6009V11.4831C79.5684 11.4515 80.0748 11.4199 80.5812 11.4199C94.6341 10.9776 103.844 23.4878 103.844 23.4878C103.844 23.4878 93.9061 37.2617 83.2399 37.2617C81.8156 37.2617 80.423 37.0405 79.0937 36.5983V21.0553C84.5692 21.7187 85.677 24.1196 88.937 29.585L96.2483 23.4562C96.2483 23.4562 90.8993 16.4745 81.9106 16.4745C80.961 16.4429 80.0115 16.5061 79.062 16.6009ZM79.062 -0.332153V7.31298L80.5812 7.2182C100.11 6.55478 112.865 23.2035 112.865 23.2035C112.865 23.2035 98.2422 40.9579 83.0183 40.9579C81.689 40.9579 80.3913 40.8315 79.0937 40.6104V45.3491C80.1698 45.4755 81.2775 45.5702 82.3537 45.5702C96.5331 45.5702 106.788 38.3358 116.726 29.8061C118.372 31.1329 125.114 34.3237 126.506 35.7137C117.074 43.6116 95.0772 49.9614 82.6069 49.9614C81.4042 49.9614 80.2647 49.8983 79.1253 49.7719V56.4377H132.995V-0.332153H79.062ZM79.062 36.5983V40.642C65.9587 38.3042 62.3189 24.6883 62.3189 24.6883C62.3189 24.6883 68.6173 17.7382 79.062 16.6009V21.0237H79.0304C73.5548 20.3602 69.2503 25.4781 69.2503 25.4781C69.2503 25.4781 71.6874 34.1025 79.062 36.5983ZM55.7989 24.1196C55.7989 24.1196 63.5532 12.6835 79.0937 11.4831V7.31298C61.8758 8.703 47 23.2351 47 23.2351C47 23.2351 55.419 47.5605 79.062 49.7719V45.3491C61.7175 43.2009 55.7989 24.1196 55.7989 24.1196Z" fill="#76B900"/>
</g>
<defs>
<clipPath id="clip0_123_493">
<rect width="199" height="109" fill="white"/>
</clipPath>
</defs>
</svg>
