<svg width="48" height="48" viewBox="0 0 48 48" fill="none" xmlns="http://www.w3.org/2000/svg">
<g id="Arrow">
<g id="Group">
<g id="Group_2">
<path id="Vector" d="M22 6V37.172L11.414 26.586C10.633 25.805 9.36699 25.805 8.58599 26.586C7.80499 27.367 7.80499 28.6335 8.58599 29.4145L22.586 43.4145C23.367 44.1955 24.6335 44.1955 25.414 43.4145L39.414 29.4145C39.8045 29.024 40 28.512 40 28C40 27.4885 39.8045 26.9765 39.414 26.586C38.633 25.805 37.3665 25.805 36.586 26.586L26 37.172V6C26 4.896 25.1045 4 24 4C22.8955 4 22 4.8955 22 6Z" fill="black"/>
</g>
</g>
</g>
</svg>
