<svg width="35" height="35" viewBox="0 0 35 35" fill="none" xmlns="http://www.w3.org/2000/svg">
<g id="Telegram Icon">
<path id="Vector" d="M17.5 5.46875C24.1445 5.46875 29.5312 10.8555 29.5312 17.5C29.5312 24.1445 24.1445 29.5312 17.5 29.5312C10.8555 29.5312 5.46875 24.1445 5.46875 17.5C5.46875 10.8555 10.8555 5.46875 17.5 5.46875ZM21.6502 22.4044C21.8712 21.7257 22.9086 14.9587 23.036 13.6248C23.0748 13.2212 22.9469 12.9527 22.6975 12.8324C22.3951 12.6875 21.9477 12.7597 21.4277 12.9473C20.7151 13.2043 11.6069 17.0712 11.0808 17.2955C10.582 17.5077 10.1101 17.7384 10.1101 18.0737C10.1101 18.3094 10.2501 18.4417 10.6351 18.579C11.0354 18.7217 12.0444 19.0274 12.641 19.192C13.2152 19.3506 13.8677 19.2128 14.2341 18.9853C14.6218 18.7441 19.1018 15.7473 19.4228 15.4842C19.7438 15.2217 20.0003 15.558 19.7378 15.8211C19.4753 16.0836 16.4008 19.0679 15.995 19.4813C15.5023 19.9828 15.8517 20.5029 16.1826 20.7113C16.5594 20.9491 19.2719 22.768 19.6804 23.0601C20.0889 23.3521 20.5029 23.4845 20.8824 23.4845C21.262 23.4839 21.4616 22.9841 21.6502 22.4044Z" fill="white"/>
</g>
</svg>
