<svg width="210" height="64" viewBox="0 0 210 64" fill="none" xmlns="http://www.w3.org/2000/svg">
<g id="Amazon Logo" clip-path="url(#clip0_123_418)">
<path id="path8" d="M130.343 49.5661C118.221 58.4885 100.65 63.249 85.5226 63.249C64.3112 63.249 45.2155 55.4146 30.7689 42.3846C29.6338 41.36 30.6508 39.9636 32.0129 40.7615C47.6036 49.82 66.8809 55.2695 86.7939 55.2695C100.224 55.2695 114.997 52.4949 128.581 46.737C130.633 45.8665 132.349 48.079 130.343 49.5661Z" fill="#FF9900"/>
<path id="path10" d="M135.382 43.8082C133.839 41.8315 125.14 42.8742 121.235 43.3367C120.046 43.4818 119.864 42.4481 120.936 41.7045C127.864 36.8353 139.232 38.2407 140.558 39.8729C141.884 41.5141 140.213 52.8938 133.702 58.3253C132.703 59.1595 131.75 58.7152 132.195 57.6089C133.657 53.9638 136.935 45.794 135.382 43.8082Z" fill="#FF9900"/>
<path id="path12" d="M121.508 7.32956V2.59631C121.508 1.87998 122.052 1.3994 122.706 1.3994H143.927C144.608 1.3994 145.152 1.88905 145.152 2.59631V6.64949C145.143 7.32955 144.571 8.21817 143.554 9.62364L132.558 25.3014C136.644 25.2016 140.957 25.8092 144.662 27.8947C145.498 28.3662 145.725 29.0553 145.788 29.7354V34.786C145.788 35.4751 145.025 36.2821 144.226 35.865C137.698 32.4466 129.026 32.0748 121.807 35.9013C121.072 36.3003 120.3 35.5023 120.3 34.8132V30.0165C120.3 29.2458 120.309 27.931 121.081 26.7612L133.82 8.5174H122.733C122.052 8.5174 121.508 8.03683 121.508 7.32956Z" fill="#221F1F"/>
<path id="path14" d="M44.0986 36.8625H37.6426C37.0251 36.8171 36.5348 36.3547 36.4894 35.7653V2.67792C36.4894 2.01599 37.0433 1.49007 37.7334 1.49007H43.7536C44.3801 1.51726 44.8795 1.99785 44.9249 2.59631V6.92152H45.043C46.6139 2.74139 49.5649 0.79187 53.5421 0.79187C57.5828 0.79187 60.1071 2.74139 61.9231 6.92152C63.4849 2.74139 67.0353 0.79187 70.8399 0.79187C73.5458 0.79187 76.506 1.90717 78.3129 4.40981C80.356 7.19354 79.9383 11.2377 79.9383 14.7831L79.9292 35.6656C79.9292 36.3275 79.3753 36.8625 78.6852 36.8625H72.2383C71.5936 36.8171 71.076 36.3003 71.076 35.6656V18.129C71.076 16.7326 71.2031 13.2506 70.8944 11.9268C70.4131 9.70525 68.9694 9.07958 67.0989 9.07958C65.5371 9.07958 63.9026 10.1223 63.2398 11.7908C62.5769 13.4592 62.6405 16.252 62.6405 18.129V35.6656C62.6405 36.3275 62.0866 36.8625 61.3965 36.8625H54.9495C54.2957 36.8171 53.7872 36.3003 53.7872 35.6656L53.7782 18.129C53.7782 14.4385 54.3865 9.00704 49.801 9.00704C45.161 9.00704 45.3426 14.3025 45.3426 18.129V35.6656C45.3426 36.3275 44.7887 36.8625 44.0986 36.8625Z" fill="#221F1F"/>
<path id="path16" d="M163.422 0.79187C173.002 0.79187 178.186 9.00704 178.186 19.4528C178.186 29.545 172.457 37.5516 163.422 37.5516C154.015 37.5516 148.894 29.3364 148.894 19.0992C148.894 8.79849 154.078 0.79187 163.422 0.79187ZM163.476 7.54717C158.718 7.54717 158.419 14.0214 158.419 18.0564C158.419 22.1005 158.355 30.7328 163.422 30.7328C168.425 30.7328 168.661 23.769 168.661 19.5254C168.661 16.7326 168.543 13.3957 167.699 10.748C166.972 8.44486 165.529 7.54717 163.476 7.54717Z" fill="#221F1F"/>
<path id="path18" d="M190.608 36.8625H184.179C183.535 36.8171 183.017 36.3003 183.017 35.6656L183.008 2.5691C183.062 1.96158 183.598 1.49007 184.252 1.49007H190.236C190.799 1.51726 191.262 1.89811 191.389 2.41496V7.47463H191.507C193.314 2.94994 195.847 0.79187 200.306 0.79187C203.202 0.79187 206.026 1.83464 207.842 4.6909C209.531 7.33862 209.531 11.7908 209.531 14.9916V35.8197C209.459 36.4 208.923 36.8625 208.287 36.8625H201.813C201.223 36.8171 200.733 36.3819 200.669 35.8197V17.8479C200.669 14.2299 201.087 8.9345 196.628 8.9345C195.057 8.9345 193.614 9.98634 192.896 11.5822C191.988 13.6043 191.87 15.6173 191.87 17.8479V35.6656C191.861 36.3275 191.298 36.8625 190.608 36.8625Z" fill="#221F1F"/>
<path id="use28" d="M104.591 21.0578V19.6614C99.9239 19.6614 94.9933 20.6588 94.9933 26.1537C94.9933 28.9374 96.437 30.8235 98.916 30.8235C100.732 30.8235 102.357 29.7082 103.383 27.8947C104.655 25.6641 104.591 23.5695 104.591 21.0578ZM111.102 36.7718C110.675 37.1526 110.057 37.1798 109.576 36.9259C107.433 35.1487 107.052 34.3236 105.871 32.6279C102.33 36.2368 99.824 37.3158 95.2294 37.3158C89.7994 37.3158 85.568 33.9699 85.568 27.269C85.568 22.0371 88.4101 18.4735 92.4508 16.7326C95.9558 15.1911 100.85 14.9191 104.591 14.4929V13.6587C104.591 12.1263 104.709 10.3128 103.81 8.98891C103.02 7.80106 101.513 7.31141 100.187 7.31141C97.7264 7.31141 95.529 8.5718 94.9933 11.1832C94.8843 11.7636 94.4576 12.3348 93.8764 12.362L87.6111 11.691C87.0844 11.5732 86.5033 11.147 86.6486 10.34C88.0923 2.75952 94.9479 0.474503 101.086 0.474503C104.228 0.474503 108.332 1.30871 110.811 3.6844C113.953 6.61321 113.653 10.5213 113.653 14.774V24.8208C113.653 27.8403 114.906 29.1641 116.087 30.7963C116.504 31.3766 116.595 32.0748 116.069 32.5101C114.752 33.6072 112.409 35.6474 111.12 36.7899L111.102 36.7718Z" fill="#221F1F"/>
<path id="path30" d="M19.9543 21.0578V19.6614C15.2871 19.6614 10.3565 20.6588 10.3565 26.1537C10.3565 28.9374 11.8003 30.8235 14.2792 30.8235C16.0952 30.8235 17.7206 29.7082 18.7466 27.8947C20.0179 25.6641 19.9543 23.5695 19.9543 21.0578ZM26.4648 36.7718C26.0381 37.1526 25.4206 37.1798 24.9394 36.9259C22.7964 35.1487 22.4151 34.3236 21.2346 32.6279C17.6933 36.2368 15.1872 37.3158 10.5926 37.3158C5.16262 37.3158 0.931244 33.9699 0.931244 27.269C0.931244 22.0371 3.77335 18.4735 7.81405 16.7326C11.319 15.1911 16.2133 14.9191 19.9543 14.4929V13.6587C19.9543 12.1263 20.0724 10.3128 19.1734 8.98891C18.3834 7.80106 16.8761 7.31141 15.5504 7.31141C13.0897 7.31141 10.8922 8.5718 10.3565 11.1832C10.2476 11.7636 9.82078 12.3348 9.23965 12.362L2.97429 11.691C2.44764 11.5732 1.86651 11.147 2.01179 10.34C3.45555 2.75952 10.3111 0.474503 16.4494 0.474503C19.5911 0.474503 23.6954 1.30871 26.1743 3.6844C29.316 6.61321 29.0164 10.5213 29.0164 14.774V24.8208C29.0164 27.8403 30.2695 29.1641 31.4499 30.7963C31.8676 31.3766 31.9584 32.0748 31.4317 32.5101C30.1151 33.6072 27.7724 35.6474 26.483 36.7899L26.4648 36.7718Z" fill="#221F1F"/>
</g>
<defs>
<clipPath id="clip0_123_418">
<rect width="208.85" height="62.9476" fill="white" transform="translate(0.805176 0.389404)"/>
</clipPath>
</defs>
</svg>
